<svg xmlns="http://www.w3.org/2000/svg" viewBox="0 0 64 64"><defs><linearGradient id="isc-g" gradientUnits="userSpaceOnUse" x1="0" y1="0" x2="64" y2="64"><stop offset="0" stop-color="#2E9159"/><stop offset="1" stop-color="#185934"/></linearGradient></defs><rect width="64" height="64" rx="19" fill="url(#isc-g)"/><rect x="1.2" y="1.2" width="61.6" height="61.6" rx="17.8" fill="none" stroke="#fff" stroke-opacity=".2" stroke-width="2.4"/><g transform="translate(2.68 16.02) scale(0.72)"><path d="M17 14.5C26 12.5 37 12 46 12.8C49.5 13.2 51.5 15 52.5 18C55 25 56.3 33 55.5 40C55 46 53.5 50 51 52.3C46.5 55.3 38.5 55.2 33 52.5V48.3C30 50 26.5 51 22 51.4C17.5 51.8 13.8 50.8 13.8 47.8V44.2C10 42.5 7 38.5 6.5 33C6 27 8.5 22 13.5 19C15.3 18 16.5 17 17 14.5Z" fill="url(#isc-g)"/><g fill="none" stroke="#fff" stroke-width="3.9" stroke-linecap="round" stroke-linejoin="round"><path d="M17 14.5C26 12.5 37 12 46 12.8C49.5 13.2 51.5 15 52.5 18C55 25 56.3 33 55.5 40C55 46 53.5 50 51 52.3C46.5 55.3 38.5 55.2 33 52.5"/><path d="M17 14.5C16.5 17 15.3 18 13.5 19C8.5 22 6 27 6.5 33C7 38.5 10 42.5 13.8 44.2"/><path d="M13.8 44.2V47.8C13.8 50.8 17.5 51.8 22 51.4C26.5 51 30 50 33 48.3V52.5"/><path d="M13.8 44.2C15.3 44.9 16.8 45.2 18.5 45.3L23 45.3"/><path d="M22 17.3L25.5 20.5C27.5 18.5 29.5 17.3 32 16.5"/><path d="M25.5 20.5C22.8 23.5 21.5 27.3 21.5 31C21.5 38.3 26.8 44 33.5 44.3L38.5 44.3"/><path d="M33 44.5V48.3"/></g><circle cx="42.5" cy="40.5" r="2.15" fill="#fff"/></g><path d="M37.6 20.6L40 17" fill="none" stroke="#fff" stroke-width="2.4" stroke-linecap="round"/><path d="M45.2 26.4L47.8 23.2" fill="none" stroke="#fff" stroke-width="2.4" stroke-linecap="round"/><circle cx="48.5" cy="15" r="9.40" fill="url(#isc-g)"/><clipPath id="isc-b"><circle cx="48.5" cy="15" r="7.6"/></clipPath><circle cx="48.5" cy="15" r="7.6" fill="url(#isc-g)"/><g clip-path="url(#isc-b)" fill="#fff"><polygon points="49.77,9.91 47.99,7.79 49.46,5.44 52.14,6.11 52.34,8.87"/><polygon points="53.73,14.63 55.20,12.29 57.89,12.96 58.08,15.72 55.51,16.76"/><polygon points="50.46,19.86 53.15,20.53 53.35,23.30 50.78,24.33 49.00,22.21"/><polygon points="44.48,18.37 44.68,21.13 42.11,22.17 40.33,20.05 41.80,17.70"/><polygon points="44.05,12.22 41.48,13.26 39.70,11.14 41.17,8.79 43.86,9.46"/></g><polygon points="49.11,12.57 51.00,14.83 49.44,17.33 46.58,16.61 46.37,13.67" fill="#fff" stroke="#fff" stroke-width="0.54" stroke-linejoin="round"/><g stroke="#fff" stroke-width="0.90" stroke-linecap="round"><path d="M49.11 12.57L49.82 10.13"/><path d="M51.00 14.83L53.96 14.65"/><path d="M49.44 17.33L50.55 19.65"/><path d="M46.58 16.61L44.31 18.22"/><path d="M46.37 13.67L43.86 12.34"/></g><circle cx="48.5" cy="15" r="7.6" fill="none" stroke="#fff" stroke-width="2.1"/></svg>
